<svg xmlns="http://www.w3.org/2000/svg" width="76.354" height="76.354" viewBox="0 0 76.354 76.354">
  <g id="Group_45" data-name="Group 45" transform="translate(0 0)">
    <path id="Path_88" data-name="Path 88" d="M-267.614,433.455a38.09,38.09,0,0,1-38.507,37.931A38.07,38.07,0,0,1-343.967,432.8c.058-21.045,17.242-37.841,38.646-37.772C-284.434,395.1-267.576,412.277-267.614,433.455Zm-15.722-15.611h-44.842c-.851,2.561.122,3.948,2.246,5.179,6.007,3.481,11.921,7.13,17.789,10.842,1.621,1.025,2.776,1.192,4.505.072q8.992-5.822,18.252-11.222C-283.4,421.559-282.739,420.235-283.336,417.844Zm-43.444,30.631h41.925c-4.393-5.5-8.511-10.663-12.62-15.81-2.308,1.418-4.318,2.52-6.176,3.835a3.256,3.256,0,0,1-4.285.056c-1.928-1.354-4.02-2.474-6.283-3.842Zm43.427-1.65v-22.86l-12.211,7.53Zm-32.752-15.3-12.1-7.384V446.72Z" transform="translate(343.967 -395.033)" fill-rule="evenodd"/>
    <path id="Path_89" data-name="Path 89" d="M-272.877,433.254c.6,2.391-.061,3.715-2.049,4.871q-9.259,5.382-18.252,11.222c-1.729,1.12-2.884.953-4.505-.072-5.868-3.712-11.782-7.361-17.789-10.842-2.124-1.231-3.1-2.618-2.246-5.179Z" transform="translate(333.508 -410.443)" fill="#fff" fill-rule="evenodd"/>
    <path id="Path_90" data-name="Path 90" d="M-315.169,473.9l12.562-15.761c2.264,1.368,4.355,2.489,6.283,3.842a3.256,3.256,0,0,0,4.285-.056c1.858-1.315,3.867-2.417,6.176-3.835,4.108,5.147,8.226,10.305,12.62,15.81Z" transform="translate(332.356 -420.456)" fill="#fff" fill-rule="evenodd"/>
    <path id="Path_91" data-name="Path 91" d="M-250.654,466.372l-12.211-15.33,12.211-7.53Z" transform="translate(311.268 -414.579)" fill="#fff" fill-rule="evenodd"/>
    <path id="Path_92" data-name="Path 92" d="M-305.455,451.19l-12.1,15.2V443.806Z" transform="translate(333.317 -414.698)" fill="#fff" fill-rule="evenodd"/>
  </g>
</svg>
