<svg xmlns="http://www.w3.org/2000/svg" width="76.354" height="76.354" viewBox="0 0 76.354 76.354">
  <g id="Group_44" data-name="Group 44" transform="translate(0 0)">
    <path id="Path_86" data-name="Path 86" d="M-343.968,255.222a38.025,38.025,0,0,1,38.229-38.19,38.049,38.049,0,0,1,38.125,38.3A38.074,38.074,0,0,1-306,293.386,38.058,38.058,0,0,1-343.968,255.222Zm37.206-6.7c-6.966-.569-12.543-3.886-17.357-9-2.234,4.341-.856,7.843,1.762,11.275l-3.035-.273-.665.757,5.465,7.56L-322.908,260l8.179,6.118-11.168,3.194c.443.257.843.526,1.274.732a24.654,24.654,0,0,0,35.456-19.661c.315-2.781,1.075-4.936,3.141-6.711a9.3,9.3,0,0,0,1.077-1.468l-3.672.848,2.488-3.77c-3.189,1.453-5.6.79-8.373-.746-3.933-2.178-9.376.184-11.11,4.5A32.461,32.461,0,0,0-306.762,248.527Z" transform="translate(343.968 -217.032)" fill-rule="evenodd"/>
    <path id="Path_87" data-name="Path 87" d="M-294.662,262.5a32.461,32.461,0,0,1,1.145-5.486c1.733-4.316,7.177-6.678,11.11-4.5,2.772,1.536,5.184,2.2,8.373.746l-2.488,3.77,3.672-.848a9.3,9.3,0,0,1-1.077,1.468c-2.066,1.775-2.826,3.929-3.141,6.711a24.654,24.654,0,0,1-35.456,19.661c-.43-.206-.83-.475-1.274-.732l11.168-3.194-8.179-6.118,2.316-1.155-5.465-7.56.665-.757,3.035.273c-2.618-3.432-4-6.934-1.762-11.275C-307.2,258.615-301.628,261.932-294.662,262.5Z" transform="translate(331.868 -231.006)" fill="#fff" fill-rule="evenodd"/>
  </g>
</svg>
