<svg xmlns="http://www.w3.org/2000/svg" width="76.354" height="76.354" viewBox="0 0 76.354 76.354">
  <g id="Group_43" data-name="Group 43" transform="translate(0 0)">
    <path id="Path_84" data-name="Path 84" d="M-150,417.67a38.049,38.049,0,0,1,38.168,38.261,38.071,38.071,0,0,1-38.344,38.093,38.056,38.056,0,0,1-38.01-38.42A38.034,38.034,0,0,1-150,417.67Zm-9.655,31.075v6.99l4.308.293v20.813h8.519V456.02l5.935-.321c.205-2.405.394-4.619.611-7.165h-6.167c-1.029-5.626-.966-5.7,6-7v-7.5c-4.057.7-8.146.586-11.43,2.156-5.007,2.4-3.129,7.957-3.718,12.282Z" transform="translate(188.183 -417.67)" fill-rule="evenodd"/>
    <path id="Path_85" data-name="Path 85" d="M-140.377,459.8l4.056-.277c.588-4.324-1.29-9.887,3.718-12.282,3.284-1.57,7.373-1.458,11.43-2.156v7.5c-6.962,1.306-7.026,1.378-6,7H-121c-.217,2.546-.406,4.76-.611,7.165l-5.935.321v20.82h-8.519V467.081l-4.308-.293Z" transform="translate(168.908 -428.723)" fill="#fff" fill-rule="evenodd"/>
  </g>
</svg>
