<svg id="Group_46" data-name="Group 46" xmlns="http://www.w3.org/2000/svg" width="76.354" height="76.354" viewBox="0 0 76.354 76.354">
  <path id="Path_93" data-name="Path 93" d="M-125.854,217.032a38.047,38.047,0,0,1,38.24,38.189,38.073,38.073,0,0,1-38.273,38.165,38.046,38.046,0,0,1-38.081-38.347A38.038,38.038,0,0,1-125.854,217.032Zm19.236,38.116c0-4.666.041-9.332-.013-14-.04-3.419-1.709-5.084-5.158-5.1q-14-.06-28,0c-3.46.014-5.156,1.669-5.172,5.079q-.067,14,0,28c.014,3.605,1.667,5.239,5.3,5.252q13.849.051,27.7,0c3.746-.014,5.31-1.666,5.335-5.531C-106.593,264.283-106.615,259.716-106.618,255.148Z" transform="translate(163.968 -217.032)" fill-rule="evenodd"/>
  <path id="Path_94" data-name="Path 94" d="M-93.795,267.978c0,4.567.024,9.134-.006,13.7-.025,3.865-1.589,5.517-5.335,5.531q-13.849.053-27.7,0c-3.638-.013-5.291-1.647-5.3-5.252q-.054-14,0-28c.016-3.411,1.712-5.066,5.172-5.079q14-.057,28,0c3.45.014,5.118,1.679,5.158,5.1C-93.755,258.646-93.8,263.312-93.795,267.978Zm-4.914,14.487V264.535a12.857,12.857,0,0,0-1.59.285,5.06,5.06,0,0,0-.953.524c.828,6.855-1.894,12.541-7.644,13.827-11.236,2.513-15.985-3.157-16.058-14.177l-2.437-.447c0,5.478.053,10.636-.029,15.792-.029,1.784.781,2.16,2.347,2.146,5.859-.053,11.72-.02,17.581-.019Zm-6.523-14.539a7.682,7.682,0,0,0-7.6-7.533,7.765,7.765,0,0,0-7.861,7.6,7.7,7.7,0,0,0,7.634,7.5A7.621,7.621,0,0,0-105.232,267.926Zm6.678-10.327c0-3.974-.008-3.823-3.543-4.025-2.717-.156-3.8.517-3.794,3.527.01,2.98.8,3.9,3.832,3.853C-99.166,260.909-97.978,260.092-98.554,257.6Z" transform="translate(151.146 -229.862)" fill="#fff" fill-rule="evenodd"/>
  <path id="Path_95" data-name="Path 95" d="M-95.5,293.06h-8.783c-5.861,0-11.722-.034-17.581.019-1.567.014-2.376-.362-2.347-2.146.082-5.156.029-10.313.029-15.792l2.437.447c.073,11.02,4.823,16.689,16.058,14.177,5.75-1.286,8.472-6.972,7.644-13.827a5.059,5.059,0,0,1,.953-.524,12.857,12.857,0,0,1,1.59-.285Z" transform="translate(147.94 -240.456)" fill-rule="evenodd"/>
  <path id="Path_96" data-name="Path 96" d="M-97.481,275.721a7.621,7.621,0,0,1-7.828,7.572,7.7,7.7,0,0,1-7.634-7.5,7.765,7.765,0,0,1,7.861-7.6A7.682,7.682,0,0,1-97.481,275.721Z" transform="translate(143.395 -237.657)" fill-rule="evenodd"/>
  <path id="Path_97" data-name="Path 97" d="M-80.8,260.774c.576,2.494-.613,3.31-3.506,3.355-3.032.047-3.821-.873-3.832-3.853-.01-3.01,1.077-3.683,3.794-3.527C-80.81,256.951-80.8,256.8-80.8,260.774Z" transform="translate(133.395 -233.037)" fill-rule="evenodd"/>
</svg>
