<svg xmlns="http://www.w3.org/2000/svg" width="65.589" height="159.927" viewBox="0 0 65.589 159.927">
  <g id="Group_12" data-name="Group 12" transform="translate(16.854 738.196) rotate(-90)">
    <path id="Path_14" data-name="Path 14" d="M609.763,47.821h-9.491V21.81h-9.279V47.821H581.5V21.81h-3.234V13.375H581.5V-16.854h9.49V13.375h9.279V-16.854h9.491Z" fill="#fff"/>
    <path id="Path_15" data-name="Path 15" d="M642.03,47.821h-8.857l-.985-5.131H624.1l-.983,5.131h-8.858l1.125-5.131h-3.374l1.687-7.522h3.234l9.982-46.257h2.46ZM630.782,35.168l-2.6-14.27-2.743,14.27Z" fill="#fff"/>
    <path id="Path_16" data-name="Path 16" d="M669.375,46.131l-8.295,2.6-7.873-23.62V47.821H644.7V-9.823h8.506q7.451,0,11.317,5.63Q668.04.875,668.04,9.531q0,9.151-5.624,15.133ZM659.253,9.509q0-11.811-6.046-11.811V22.373q2.67,0,4.358-3.585A21.892,21.892,0,0,0,659.253,9.509Z" fill="#fff"/>
    <path id="Path_17" data-name="Path 17" d="M689.41,47.821H672.258V-9.823h8.506V40.3h8.646Z" fill="#fff"/>
    <path id="Path_18" data-name="Path 18" d="M709.586,47.821H692.5v-23.2h-2.882V17.1H692.5V-9.823h14.552L709.586-2.3H701.01V17.1h8.576v7.522H701.01V40.3h8.576Z" fill="#fff"/>
    <path id="Path_19" data-name="Path 19" d="M738.2-9.823l-9.631,37.258V47.821H720.13V27.435L710.358-9.823h8.928l4.991,21.581,5.062-21.581Z" fill="#fff"/>
  </g>
</svg>
