<svg xmlns="http://www.w3.org/2000/svg" width="55.445" height="189.729" viewBox="0 0 55.445 189.729">
  <g id="Group_14" data-name="Group 14" transform="translate(-255.6 750.184) rotate(-90)">
    <path id="Path_20" data-name="Path 20" d="M568.211,309.892h-7.756V257.33h7.756Z" fill="#fff"/>
    <path id="Path_21" data-name="Path 21" d="M595.131,308.35l-7.564,2.375-7.178-21.537v20.7h-7.756V257.33h7.756q6.792,0,10.319,5.134,3.205,4.622,3.205,12.514a19.342,19.342,0,0,1-5.128,13.8Zm-9.23-33.392q0-10.77-5.512-10.769v22.5q2.435,0,3.973-3.269A19.963,19.963,0,0,0,585.9,274.958Z" fill="#fff"/>
    <path id="Path_22" data-name="Path 22" d="M620.835,283.611q0,26.859-11.858,26.857-11.923,0-11.922-26.857,0-13.012,2.243-19.166,2.756-7.692,9.679-7.691,6.666,0,9.55,7.627Q620.835,270.726,620.835,283.611Zm-7.691,0q0-20-4.167-20t-4.167,20q0,20,4.167,20T613.144,283.611Z" fill="#fff"/>
    <path id="Path_23" data-name="Path 23" d="M647.5,311.045h-1.986l-13.782-26.729v25.576h-7.755V256.177h1.986l13.781,26.729V257.33H647.5Z" fill="#fff"/>
    <path id="Path_24" data-name="Path 24" d="M695.38,309.892h-7.628L685.316,290.4l-5.191,18.2h-1.347l-5.128-18.2-2.371,19.487h-7.692l6.6-54.292h1.6l7.691,26.729,7.693-26.729h1.6Z" fill="#fff"/>
    <path id="Path_25" data-name="Path 25" d="M724.225,309.892h-8.077l-.9-4.68H707.88l-.9,4.68h-8.077l1.027-4.68h-3.078l1.539-6.859h2.949l9.1-42.176h2.243Zm-10.256-11.539L711.6,285.342l-2.5,13.011Z" fill="#fff"/>
    <path id="Path_26" data-name="Path 26" d="M750.184,311.045H748.2l-13.781-26.729v25.576H726.66V256.177h1.986l13.782,26.729V257.33h7.756Z" fill="#fff"/>
  </g>
</svg>
