<svg xmlns="http://www.w3.org/2000/svg" width="73.489" height="215.953" viewBox="0 0 73.489 215.953">
  <g id="Group_4" data-name="Group 4" transform="translate(-133.583 757.76) rotate(-90)">
    <path id="Path_1" data-name="Path 1" d="M571.2,155.6q0,10.412-5.129,15.847t-13.932,5.434v28.325H541.807V134.781h10.335q9.031,0,14.047,5.4T571.2,155.6Zm-10.334,0q0-11.633-8.727-11.635V167.7Q560.869,167.7,560.869,155.6Z" transform="translate(0 0.333)" fill="#fff"/>
    <path id="Path_2" data-name="Path 2" d="M594.945,205.542H584.074l-1.148-6.278h-9.953l-1.148,6.278H560.954l1.378-6.278h-4.057l1.992-9.186h3.981l12.172-56.5h3.062Zm-13.779-15.464-3.216-17.454-3.29,17.454Z" transform="translate(4.583)" fill="#fff"/>
    <path id="Path_3" data-name="Path 3" d="M620.76,207.072h-2.6l-18.525-35.826v34.3H589.3V133.583h2.6l18.527,35.826V135.114H620.76Z" transform="translate(13.217)" fill="#fff"/>
    <path id="Path_4" data-name="Path 4" d="M642.164,143.967h-7.35v61.241H624.48V143.967h-8.115l2.3-9.186h23.5Z" transform="translate(20.75 0.333)" fill="#fff"/>
    <path id="Path_5" data-name="Path 5" d="M670.842,205.208H660.508V176.884H650.4v28.325H640.069V176.884h-3.522V167.7h3.522V134.781H650.4V167.7h10.105V134.781h10.334Z" transform="translate(26.367 0.333)" fill="#fff"/>
    <path id="Path_6" data-name="Path 6" d="M689.514,205.208H668.693V176.884h-3.522V167.7h3.522V134.781h17.76l3.062,9.186H679.027V167.7h10.487v9.186H679.027v19.139h10.487Z" transform="translate(34.334 0.333)" fill="#fff"/>
    <path id="Path_7" data-name="Path 7" d="M717.31,203.065,707.128,206.2,697.483,177.5v27.711H687.148V134.781h10.335q9.108,0,13.856,6.889,4.287,6.2,4.287,16.688,0,11.254-6.812,18.525Zm-12.4-44.706q0-6.889-1.99-10.641t-5.435-3.751v30.161q3.29,0,5.359-4.4A26.864,26.864,0,0,0,704.909,158.358Z" transform="translate(40.45 0.333)" fill="#fff"/>
  </g>
</svg>
