<svg xmlns="http://www.w3.org/2000/svg" width="69.389" height="220.153" viewBox="0 0 69.389 220.153">
  <g id="Group_10" data-name="Group 10" transform="translate(7.233 802.331) rotate(-90)">
    <path id="Path_8" data-name="Path 8" d="M621.555-5.472l-8.176,67.245h-1.986l-9.527-33.027-9.527,33.027h-1.986L582.178-5.472H591.7l2.938,24.136,6.352-22.548h1.667l6.431,22.548,3.017-24.136Z" transform="translate(0 0.383)" fill="#fff"/>
    <path id="Path_9" data-name="Path 9" d="M655.925-5.472l-8.177,67.245h-1.985l-9.527-33.027-9.527,33.027h-1.984L616.547-5.472h9.526l2.937,24.136,6.352-22.548h1.667l6.431,22.548,3.017-24.136Z" transform="translate(7.471 0.383)" fill="#fff"/>
    <path id="Path_10" data-name="Path 10" d="M679.326,27.207q0,33.265-14.687,33.265-14.767,0-14.767-33.265,0-16.117,2.778-23.739,3.413-9.528,11.989-9.527,8.255,0,11.829,9.448Q679.326,11.248,679.326,27.207Zm-9.527,0q0-24.77-5.16-24.771t-5.16,24.771q0,24.77,5.16,24.77T669.8,27.207Z" transform="translate(14.714 0.255)" fill="#fff"/>
    <path id="Path_11" data-name="Path 11" d="M714.294,60.012h-9.448L701.83,35.878,695.4,58.424h-1.667l-6.352-22.547-2.937,24.134h-9.526l8.177-67.245h1.986L694.6,25.873l9.527-33.106h1.986Z" transform="translate(20.158)" fill="#fff"/>
    <path id="Path_12" data-name="Path 12" d="M742.662,59.884h-10l-1.113-5.795h-9.13l-1.112,5.795h-10l1.271-5.795h-3.812l1.905-8.495h3.652L725.593-6.646h2.778Zm-12.7-14.289-2.937-16.118-3.1,16.118Z" transform="translate(27.515 0.128)" fill="#fff"/>
    <path id="Path_13" data-name="Path 13" d="M768.224,61.313h-2.461l-17.07-33.106V59.884h-9.605V-6.646h2.46l17.07,33.106V-5.217h9.606Z" transform="translate(34.107 0.128)" fill="#fff"/>
  </g>
</svg>
