<svg xmlns="http://www.w3.org/2000/svg" width="133.809" height="228.41" viewBox="0 0 133.809 228.41"><g transform="translate(-602.57 -217.59)"><path d="M727.147,256.09H611.8c-5.1,0-9.232,4.519-9.232,10.1V423.974c0,5.58,4.132,10.1,9.232,10.1h2.474a21.877,21.877,0,0,0,43.071,0H681.6a21.877,21.877,0,0,0,43.071,0h2.474c5.1,0,9.232-4.519,9.232-10.1V266.189C736.379,260.609,732.247,256.09,727.147,256.09Zm-91.335,188.8a14.657,14.657,0,0,1-14.147-10.814h28.293A14.658,14.658,0,0,1,635.812,444.887Zm67.325,0a14.657,14.657,0,0,1-14.147-10.814h28.294A14.658,14.658,0,0,1,703.137,444.887Zm21.409-31.87a9.429,9.429,0,0,1-2.39,6.4,7.063,7.063,0,0,1-5.209,2.39H622a7.063,7.063,0,0,1-5.209-2.39,9.429,9.429,0,0,1-2.39-6.4V322.5h38.241v3.787a10.1,10.1,0,0,0,10.1,10.1h13.465a10.1,10.1,0,0,0,10.1-10.1V322.5h38.241Zm-67.275-88.583v-9.762a7.327,7.327,0,0,1,7.321-7.322h9.763a7.327,7.327,0,0,1,7.322,7.322v9.762a7.327,7.327,0,0,1-7.322,7.322h-9.763A7.327,7.327,0,0,1,657.272,324.434Zm67.275-7.827H686.306V312.82a10.1,10.1,0,0,0-10.1-10.1H662.742a10.1,10.1,0,0,0-10.1,10.1v3.787H614.4V275.741c0-4.856,3.4-8.786,7.6-8.786h94.946c4.2,0,7.6,3.93,7.6,8.786Z" transform="translate(0 -6.1)" fill="#fff"/><path d="M702.48,217.59H649.461a5.887,5.887,0,0,0-5.891,5.891V249.99h5.091V227.647a4.963,4.963,0,0,1,4.964-4.965h44.688a4.963,4.963,0,0,1,4.964,4.965V249.99h5.092V223.481A5.887,5.887,0,0,0,702.48,217.59Z" transform="translate(-6.496 0)" fill="#fff"/></g></svg>