<svg xmlns="http://www.w3.org/2000/svg" width="153.096" height="170.46" viewBox="0 0 153.096 170.46"><g transform="translate(-120.521 -140.666)"><path d="M299.9,185.758c-7.907,3.967-15.317,7.142-22.146,11.278a104.062,104.062,0,0,0-16.168,12.281c-10.086,9.226-20.477,17.969-33.129,23.423a52.269,52.269,0,0,1-12.9,3.26c-4.013.6-7.6-1.036-10.71-3.728-2.42-2.094-5.027-3.969-8.034-6.319-.072,1.528-.148,2.386-.148,3.243q-.009,27.383,0,54.766c0,2.971-.562,3.613-3.508,3.821a15.022,15.022,0,0,1-2.485-.052c-2.088-.2-3.148-1.034-3.143-3.484q.118-54.268.052-108.535c0-9.957.025-19.915-.013-29.872-.009-2.336.83-4.083,3.059-4.88a4.292,4.292,0,0,1,5.942,4.278c-.144,2.568.928,3.914,2.871,5.191,7.756,5.1,15.373,10.447,24.117,13.783a19.675,19.675,0,0,0,6.041,1.148c6.049.273,12.107.317,18.161.485,8.8.244,17.313,1.8,25.21,5.851C281.875,176.26,290.713,180.955,299.9,185.758Z" transform="translate(-26.281)" fill="#fff" fill-rule="evenodd"/><path d="M149.546,332.1c0,2.57.117,4.807-.078,7.016-.053.6-.962,1.386-1.637,1.612-5.224,1.754-10.222,3.89-14.371,7.654-6.681,6.06-6.74,13.487-.061,19.558,5.313,4.831,11.8,7.31,18.681,8.775,13.512,2.872,26.753,2.093,39.355-3.883a32.246,32.246,0,0,0,8.655-6.117c5.142-5.078,5.066-11.524.23-16.877-4.264-4.718-9.866-7.207-15.78-9.023-1.55-.477-2.219-1.041-2.119-2.675.117-1.894.027-3.8.027-6.02,7.515,1.674,14.268,4.356,20.089,9.062a31.085,31.085,0,0,1,4.728,4.742c6.206,7.768,6.023,17.489-.39,25.077-5.335,6.31-12.338,10.007-20.117,12.189-16.322,4.578-32.458,4.14-48.17-2.641a33.237,33.237,0,0,1-13.915-10.562c-5.6-7.538-5.563-16.5.283-23.9C131.13,338.281,139.77,334.687,149.546,332.1Z" transform="translate(0 -75.084)" fill="#fff" fill-rule="evenodd"/></g></svg>