<svg xmlns="http://www.w3.org/2000/svg" width="258.38" height="149.882" viewBox="0 0 258.38 149.882"><path d="M22.193,246.845a6.785,6.785,0,0,1,.761-.4c11.663-4.525,21.449-11.836,30.356-20.45a202.21,202.21,0,0,0,28.578-34.338c2.027-3.084,4.2-6.073,6.311-9.1.166-.238.37-.449.652-.789.251.369.447.619.6.893.931,1.628,1.873,3.25,2.767,4.9.39.72.834.834,1.407.275,2.118-2.069,4.369-4.024,6.305-6.252,7.436-8.556,14.4-17.474,19.888-27.443,2.784-5.061,5.456-10.183,8.187-15.272.785-1.464.8-1.46,2.072-.433.683.551,1.381,1.087,2.031,1.675.594.539.96.4,1.33-.25,1.421-2.5,2.841-5,4.309-7.468,1.761-2.964,3.566-5.9,5.361-8.845.182-.3.42-.566.734-.983a18.17,18.17,0,0,1,1.023,1.835c3.191,7.793,7.683,14.88,12.088,22,1.776,2.87,4.168,5.348,6.087,8.138a162.763,162.763,0,0,0,21.2,24.58c4.169,4.032,8.752,7.638,13.184,11.395,2.886,2.447,5.836,4.817,8.755,7.226,1.2.987,1.587,1.018,2.682-.116,1.638-1.7,3.211-3.458,4.808-5.2.994-1.081,1.177-1.138,2.3-.176,1.7,1.457,3.326,3,5.016,4.464,1.015.88,1.22.816,1.644-.469.729-2.208,1.388-4.439,2.133-6.64a24.6,24.6,0,0,1,1.116-2.407,2.845,2.845,0,0,1,.346.385c2.782,5.379,6.678,9.918,10.755,14.328a178.107,178.107,0,0,0,32.431,27.168c.772.513,1.52,1.063,2.279,1.594l-.092.23a8.672,8.672,0,0,1-1.449-.46c-3.479-1.821-7-3.568-10.4-5.529a119.83,119.83,0,0,1-26.687-20.968c-.837-.873-1.724-1.7-2.6-2.54-.208-.2-.449-.366-.674-.548l-.271.09c.1.933.166,1.867.291,2.795.634,4.73,2.21,9.208,3.637,13.73.773,2.446,1.437,4.926,2.142,7.393.079.279.1.573.18,1.053a7.286,7.286,0,0,1-1.207-.381c-4.115-2.239-8.286-4.384-12.317-6.765a228.155,228.155,0,0,1-31.394-22.514c-8-6.77-14.719-14.721-20.946-23.09a406.075,406.075,0,0,1-24.212-36.2c-.807-1.371-1.717-2.681-2.726-4.249a8.49,8.49,0,0,0-.267,1.247c-.136,4.083-.246,8.167-.38,12.251-.108,3.3-.2,6.595-.4,9.886a3.172,3.172,0,0,1-.9,1.867,16.216,16.216,0,0,1-2.848,2.238,4.044,4.044,0,0,0-1.978,3.276c-.506,5.539-.965,11.084-1.515,16.619-.347,3.487-.813,6.962-1.252,10.439-.119.946-.348,1.062-1.273.769a41.892,41.892,0,0,0-11.163-2.213,15.16,15.16,0,0,0-4.125.395c-3.411.847-4.975,2.949-5.05,6.483a31.431,31.431,0,0,0,2.1,10.8,38.014,38.014,0,0,0,3.989,8.421,13.68,13.68,0,0,1,.692,1.391c-.067.059-.134.119-.2.178-.285-.136-.574-.266-.853-.415Q105.77,210.069,94,203.8c-.372-.2-.778-.336-1.143-.547-1.542-.888-2.739-.733-4.3,1.143-3.373,4.043-6.7,8.136-10.229,12.034-4.023,4.44-8.323,8.628-12.369,13.048-2.9,3.165-5.593,6.52-8.346,9.817a16.316,16.316,0,0,0-1.23,1.961l.158.263c.864-.143,1.738-.241,2.59-.436,6.239-1.431,12.449-2.99,18.715-4.29,4.606-.956,9.268-1.682,13.93-2.325,5.147-.71,10.32-1.255,15.49-1.775,2.948-.3,5.913-.5,8.874-.564,6.173-.132,12.35-.263,18.522-.165,4.381.07,8.757.506,13.133.8,3.652.246,7.3.526,10.951.788q5.883.422,11.767.833c1.352.093,2.706.147,4.059.218.048-.072.1-.143.143-.217a8.9,8.9,0,0,0-1.024-.843c-.852-.517-1.756-.952-2.6-1.484a8.288,8.288,0,0,1-1.1-.995c.028-.084.054-.168.082-.252a8.367,8.367,0,0,1,1.281-.146c2.659.093,5.322.128,7.972.347,5,.412,10,.871,14.983,1.429a162.7,162.7,0,0,1,24.156,4.742,159.107,159.107,0,0,1,39.572,16.177A89.987,89.987,0,0,1,278.9,270.005a23.411,23.411,0,0,1,1.438,1.869,2.421,2.421,0,0,1,.16.567c-.43-.263-.706-.4-.948-.585-2.38-1.818-4.706-3.713-7.141-5.456a124.994,124.994,0,0,0-25.148-13.444,184.787,184.787,0,0,0-35.975-11.034c-5.209-1-10.523-1.465-15.791-2.152a14,14,0,0,0-1.8-.011c-.049.1-.1.2-.149.3l5.308,4.732c-.034.091-.068.182-.1.275-1.643-.269-3.288-.524-4.929-.81-5.622-.981-11.218-2.15-16.87-2.907-4.788-.642-9.633-.986-14.464-1.146-6.53-.218-13.073-.279-19.6-.138-5.166.114-10.327.579-15.481.991q-6.779.542-13.538,1.323-6.93.808-13.833,1.858c-5.312.814-10.624,1.655-15.9,2.675-11.456,2.216-22.81,4.835-33.6,9.432-1.544.657-3.006,1.657-4.794,1.465a7.827,7.827,0,0,1-2.357-.545q-8.643-3.875-17.241-7.853c-1.383-.64-2.684-1.457-4.023-2.195C22.143,247.1,22.168,246.97,22.193,246.845Z" transform="translate(-22.118 -122.559)" fill="#fff" fill-rule="evenodd"/></svg>